# xmcd
#
# Track frame offsets: 
#        150
#        17814
#        35715
#        57889
#        75803
#        93086
#        118953
#        135630
#        157422
#        179826
#        199076
#        220197
#
# Disc length: 3124 seconds
#
# Revision: 1
# Processed by: cddbd v1.5.2PL0 Copyright (c) Steve Scherf et al.
# Submitted via: ExactAudioCopy v0.95a4
#
DISCID=a90c320c
DTITLE=Blackie and The Rodeo Kings - Kings And Kings
DYEAR=2016
DGENRE=Country
TTITLE0=Live By The Song (feat. Rodney Crowell)
TTITLE1=Bury My Heart (feat. Eric Church)
TTITLE2=Beautiful Scars (feat. City and Colour)
TTITLE3=High Wire (feat. Raul Malo)
TTITLE4=Playing By Heart (feat. Buddy Miller)
TTITLE5=Bitter And Low (feat. Fantastic Negrito)
TTITLE6=Secrets Of A Long Lasting Love (feat. Nick Lowe)
TTITLE7=A Woman Get More Beautiful (feat. Bruce Cockburn)
TTITLE8=Land Of The Living Hamilton Ontario 2016 (feat. Jason Isbell)
TTITLE9=Long Walk To Freedom (feat. Keb' Mo')
TTITLE10=This Lonesome Feeling (feat. Vince Gill)
TTITLE11=Where The River Rolls (feat. The Men of Nashville)
EXTD=Year: 2016\n\n\n\n\n\n                                           
EXTD=http://blackieandtherodeokings.com/
EXTT0=
EXTT1=
EXTT2=
EXTT3=
EXTT4=
EXTT5=
EXTT6=
EXTT7=
EXTT8=
EXTT9=
EXTT10=
EXTT11=
PLAYORDER=
